<?xml version="1.0" encoding="UTF-8" standalone="no"?>
<!-- Created with Inkscape (http://www.inkscape.org/) -->

<svg
   xmlns:dc="http://purl.org/dc/elements/1.1/"
   xmlns:cc="http://creativecommons.org/ns#"
   xmlns:rdf="http://www.w3.org/1999/02/22-rdf-syntax-ns#"
   xmlns:svg="http://www.w3.org/2000/svg"
   xmlns="http://www.w3.org/2000/svg"
   xmlns:sodipodi="http://sodipodi.sourceforge.net/DTD/sodipodi-0.dtd"
   xmlns:inkscape="http://www.inkscape.org/namespaces/inkscape"
   version="1.1"
   id="svg10"
   xml:space="preserve"
   width="1056"
   height="816"
   viewBox="0 0 1056 816"
   sodipodi:docname="Zeta Bottom Plate.svg"
   inkscape:version="0.92.2 (5c3e80d, 2017-08-06)"><metadata
     id="metadata16"><rdf:RDF><cc:Work
         rdf:about=""><dc:format>image/svg+xml</dc:format><dc:type
           rdf:resource="http://purl.org/dc/dcmitype/StillImage" /><dc:title></dc:title></cc:Work></rdf:RDF></metadata><defs
     id="defs14"><clipPath
       clipPathUnits="userSpaceOnUse"
       id="clipPath36"><path
         d="m 165,165 h 12870 v 9870 H 165 Z"
         id="path34"
         inkscape:connector-curvature="0"
         style="clip-rule:evenodd" /></clipPath><clipPath
       clipPathUnits="userSpaceOnUse"
       id="clipPath46"><path
         d="m 165,165 h 12870 v 9870 H 165 Z"
         id="path44"
         inkscape:connector-curvature="0"
         style="clip-rule:evenodd" /></clipPath><clipPath
       clipPathUnits="userSpaceOnUse"
       id="clipPath52"><path
         d="M 582,2960 H 12617 V 7240 H 582 Z"
         id="path50"
         inkscape:connector-curvature="0"
         style="clip-rule:evenodd" /></clipPath></defs><sodipodi:namedview
     pagecolor="#ffffff"
     bordercolor="#666666"
     borderopacity="1"
     objecttolerance="10"
     gridtolerance="10"
     guidetolerance="10"
     inkscape:pageopacity="0"
     inkscape:pageshadow="2"
     inkscape:window-width="3840"
     inkscape:window-height="2066"
     id="namedview12"
     showgrid="false"
     inkscape:zoom="2.2585784"
     inkscape:cx="528"
     inkscape:cy="408"
     inkscape:window-x="2869"
     inkscape:window-y="-11"
     inkscape:window-maximized="1"
     inkscape:current-layer="g18" /><g
     id="g18"
     inkscape:groupmode="layer"
     inkscape:label="Zeta Bottom Plate"
     transform="matrix(1.3333333,0,0,-1.3333333,0,816)"><g
       id="g20"
       transform="matrix(0.06,0,0,-0.06,0,612)"><g
         id="g22"><g
           id="g24" /></g><g
         id="g26"><g
           id="g28" /></g><g
         id="g30"><g
           id="g32"
           clip-path="url(#clipPath36)"><g
             id="g38" /></g></g><g
         id="g40"><g
           id="g42"
           clip-path="url(#clipPath46)"><g
             id="g48"
             clip-path="url(#clipPath52)"><g
               id="g54" /><g
               id="g56"><path
                 d="M 12615,6436 12131,3001"
                 style="fill:none;stroke:#ff9999;stroke-width:12.5;stroke-linecap:round;stroke-linejoin:round;stroke-miterlimit:10;stroke-dasharray:none;stroke-opacity:1"
                 id="path58"
                 inkscape:connector-curvature="0" /><path
                 d="m 12131,3001 -3,-11 -5,-10 -7,-8 -10,-6 -10,-4 -11,-2"
                 style="fill:none;stroke:#ff9999;stroke-width:12.5;stroke-linecap:round;stroke-linejoin:round;stroke-miterlimit:10;stroke-dasharray:none;stroke-opacity:1"
                 id="path60"
                 inkscape:connector-curvature="0" /><path
                 d="M 12085,2960 H 1113"
                 style="fill:none;stroke:#ff9999;stroke-width:12.5;stroke-linecap:round;stroke-linejoin:round;stroke-miterlimit:10;stroke-dasharray:none;stroke-opacity:1"
                 id="path62"
                 inkscape:connector-curvature="0" /><path
                 d="m 12575,6490 12,-4 10,-6 9,-9 6,-11 3,-11 v -13"
                 style="fill:none;stroke:#ff9999;stroke-width:12.5;stroke-linecap:round;stroke-linejoin:round;stroke-miterlimit:10;stroke-dasharray:none;stroke-opacity:1"
                 id="path64"
                 inkscape:connector-curvature="0" /><path
                 d="M 12575,6490 7284,7238"
                 style="fill:none;stroke:#ff9999;stroke-width:12.5;stroke-linecap:round;stroke-linejoin:round;stroke-miterlimit:10;stroke-dasharray:none;stroke-opacity:1"
                 id="path66"
                 inkscape:connector-curvature="0" /><path
                 d="m 1113,2960 -11,2 -10,4 -10,6 -7,8 -5,10 -3,11"
                 style="fill:none;stroke:#ff9999;stroke-width:12.5;stroke-linecap:round;stroke-linejoin:round;stroke-miterlimit:10;stroke-dasharray:none;stroke-opacity:1"
                 id="path68"
                 inkscape:connector-curvature="0" /><path
                 d="M 1067,3001 583,6436"
                 style="fill:none;stroke:#ff9999;stroke-width:12.5;stroke-linecap:round;stroke-linejoin:round;stroke-miterlimit:10;stroke-dasharray:none;stroke-opacity:1"
                 id="path70"
                 inkscape:connector-curvature="0" /><path
                 d="m 583,6436 v 13 l 3,11 6,11 9,9 10,6 12,4"
                 style="fill:none;stroke:#ff9999;stroke-width:12.5;stroke-linecap:round;stroke-linejoin:round;stroke-miterlimit:10;stroke-dasharray:none;stroke-opacity:1"
                 id="path72"
                 inkscape:connector-curvature="0" /><path
                 d="m 623,6490 5291,748"
                 style="fill:none;stroke:#ff9999;stroke-width:12.5;stroke-linecap:round;stroke-linejoin:round;stroke-miterlimit:10;stroke-dasharray:none;stroke-opacity:1"
                 id="path74"
                 inkscape:connector-curvature="0" /><path
                 d="m 11374,3952 c 0,28.7188 -23.281,52 -52,52 -28.719,0 -52,-23.2812 -52,-52 0,-28.7188 23.281,-52 52,-52 28.719,0 52,23.2812 52,52 z"
                 style="fill:none;stroke:#ff9999;stroke-width:12.5;stroke-linecap:round;stroke-linejoin:round;stroke-miterlimit:10;stroke-dasharray:none;stroke-opacity:1"
                 id="path76"
                 inkscape:connector-curvature="0" /><path
                 d="m 11374,3952 c 0,28.7188 -23.281,52 -52,52 -28.719,0 -52,-23.2812 -52,-52 0,-28.7188 23.281,-52 52,-52 28.719,0 52,23.2812 52,52 z"
                 style="fill:#ffffff;fill-opacity:1;fill-rule:evenodd;stroke:#000000;stroke-width:1;stroke-linecap:square;stroke-linejoin:bevel;stroke-miterlimit:10;stroke-dasharray:none;stroke-opacity:1"
                 id="path78"
                 inkscape:connector-curvature="0" /><path
                 d="m 11624,5729 c 0,28.7188 -23.281,52 -52,52 -28.719,0 -52,-23.2812 -52,-52 0,-28.7188 23.281,-52 52,-52 28.719,0 52,23.2812 52,52 z"
                 style="fill:none;stroke:#ff9999;stroke-width:12.5;stroke-linecap:round;stroke-linejoin:round;stroke-miterlimit:10;stroke-dasharray:none;stroke-opacity:1"
                 id="path80"
                 inkscape:connector-curvature="0" /><path
                 d="m 11624,5729 c 0,28.7188 -23.281,52 -52,52 -28.719,0 -52,-23.2812 -52,-52 0,-28.7188 23.281,-52 52,-52 28.719,0 52,23.2812 52,52 z"
                 style="fill:#ffffff;fill-opacity:1;fill-rule:evenodd;stroke:#000000;stroke-width:1;stroke-linecap:square;stroke-linejoin:bevel;stroke-miterlimit:10;stroke-dasharray:none;stroke-opacity:1"
                 id="path82"
                 inkscape:connector-curvature="0" /><path
                 d="M 5914,7238 H 7284"
                 style="fill:none;stroke:#ff9999;stroke-width:12.5;stroke-linecap:round;stroke-linejoin:round;stroke-miterlimit:10;stroke-dasharray:none;stroke-opacity:1"
                 id="path84"
                 inkscape:connector-curvature="0" /><path
                 d="m 1928,3952 c 0,28.7188 -23.2812,52 -52,52 -28.7188,0 -52,-23.2812 -52,-52 0,-28.7188 23.2812,-52 52,-52 28.7188,0 52,23.2812 52,52 z"
                 style="fill:none;stroke:#ff9999;stroke-width:12.5;stroke-linecap:round;stroke-linejoin:round;stroke-miterlimit:10;stroke-dasharray:none;stroke-opacity:1"
                 id="path86"
                 inkscape:connector-curvature="0" /><path
                 d="m 1928,3952 c 0,28.7188 -23.2812,52 -52,52 -28.7188,0 -52,-23.2812 -52,-52 0,-28.7188 23.2812,-52 52,-52 28.7188,0 52,23.2812 52,52 z"
                 style="fill:#ffffff;fill-opacity:1;fill-rule:evenodd;stroke:#000000;stroke-width:1;stroke-linecap:square;stroke-linejoin:bevel;stroke-miterlimit:10;stroke-dasharray:none;stroke-opacity:1"
                 id="path88"
                 inkscape:connector-curvature="0" /><path
                 d="m 1678,5729 c 0,28.7188 -23.2812,52 -52,52 -28.7188,0 -52,-23.2812 -52,-52 0,-28.7188 23.2812,-52 52,-52 28.7188,0 52,23.2812 52,52 z"
                 style="fill:none;stroke:#ff9999;stroke-width:12.5;stroke-linecap:round;stroke-linejoin:round;stroke-miterlimit:10;stroke-dasharray:none;stroke-opacity:1"
                 id="path90"
                 inkscape:connector-curvature="0" /><path
                 d="m 1678,5729 c 0,28.7188 -23.2812,52 -52,52 -28.7188,0 -52,-23.2812 -52,-52 0,-28.7188 23.2812,-52 52,-52 28.7188,0 52,23.2812 52,52 z"
                 style="fill:#ffffff;fill-opacity:1;fill-rule:evenodd;stroke:#000000;stroke-width:1;stroke-linecap:square;stroke-linejoin:bevel;stroke-miterlimit:10;stroke-dasharray:none;stroke-opacity:1"
                 id="path92"
                 inkscape:connector-curvature="0" /><path
                 d="m 4611,4170 c 0,28.7188 -23.2812,52 -52,52 -28.7188,0 -52,-23.2812 -52,-52 0,-28.7188 23.2812,-52 52,-52 28.7188,0 52,23.2812 52,52 z"
                 style="fill:none;stroke:#ff9999;stroke-width:12.5;stroke-linecap:round;stroke-linejoin:round;stroke-miterlimit:10;stroke-dasharray:none;stroke-opacity:1"
                 id="path94"
                 inkscape:connector-curvature="0" /><path
                 d="m 4611,4170 c 0,28.7188 -23.2812,52 -52,52 -28.7188,0 -52,-23.2812 -52,-52 0,-28.7188 23.2812,-52 52,-52 28.7188,0 52,23.2812 52,52 z"
                 style="fill:#ffffff;fill-opacity:1;fill-rule:evenodd;stroke:#000000;stroke-width:1;stroke-linecap:square;stroke-linejoin:bevel;stroke-miterlimit:10;stroke-dasharray:none;stroke-opacity:1"
                 id="path96"
                 inkscape:connector-curvature="0" /><path
                 d="m 8939,5960 c 0,28.7188 -23.2812,52 -52,52 -28.7188,0 -52,-23.2812 -52,-52 0,-28.7188 23.2812,-52 52,-52 28.7188,0 52,23.2812 52,52 z"
                 style="fill:none;stroke:#ff9999;stroke-width:12.5;stroke-linecap:round;stroke-linejoin:round;stroke-miterlimit:10;stroke-dasharray:none;stroke-opacity:1"
                 id="path98"
                 inkscape:connector-curvature="0" /><path
                 d="m 8939,5960 c 0,28.7188 -23.2812,52 -52,52 -28.7188,0 -52,-23.2812 -52,-52 0,-28.7188 23.2812,-52 52,-52 28.7188,0 52,23.2812 52,52 z"
                 style="fill:#ffffff;fill-opacity:1;fill-rule:evenodd;stroke:#000000;stroke-width:1;stroke-linecap:square;stroke-linejoin:bevel;stroke-miterlimit:10;stroke-dasharray:none;stroke-opacity:1"
                 id="path100"
                 inkscape:connector-curvature="0" /><path
                 d="m 7938,5280 c 0,28.7188 -23.2812,52 -52,52 -28.7188,0 -52,-23.2812 -52,-52 0,-28.7188 23.2812,-52 52,-52 28.7188,0 52,23.2812 52,52 z"
                 style="fill:none;stroke:#ff9999;stroke-width:12.5;stroke-linecap:round;stroke-linejoin:round;stroke-miterlimit:10;stroke-dasharray:none;stroke-opacity:1"
                 id="path102"
                 inkscape:connector-curvature="0" /><path
                 d="m 7938,5280 c 0,28.7188 -23.2812,52 -52,52 -28.7188,0 -52,-23.2812 -52,-52 0,-28.7188 23.2812,-52 52,-52 28.7188,0 52,23.2812 52,52 z"
                 style="fill:#ffffff;fill-opacity:1;fill-rule:evenodd;stroke:#000000;stroke-width:1;stroke-linecap:square;stroke-linejoin:bevel;stroke-miterlimit:10;stroke-dasharray:none;stroke-opacity:1"
                 id="path104"
                 inkscape:connector-curvature="0" /><path
                 d="m 8691,4170 c 0,28.7188 -23.2812,52 -52,52 -28.7188,0 -52,-23.2812 -52,-52 0,-28.7188 23.2812,-52 52,-52 28.7188,0 52,23.2812 52,52 z"
                 style="fill:none;stroke:#ff9999;stroke-width:12.5;stroke-linecap:round;stroke-linejoin:round;stroke-miterlimit:10;stroke-dasharray:none;stroke-opacity:1"
                 id="path106"
                 inkscape:connector-curvature="0" /><path
                 d="m 8691,4170 c 0,28.7188 -23.2812,52 -52,52 -28.7188,0 -52,-23.2812 -52,-52 0,-28.7188 23.2812,-52 52,-52 28.7188,0 52,23.2812 52,52 z"
                 style="fill:#ffffff;fill-opacity:1;fill-rule:evenodd;stroke:#000000;stroke-width:1;stroke-linecap:square;stroke-linejoin:bevel;stroke-miterlimit:10;stroke-dasharray:none;stroke-opacity:1"
                 id="path108"
                 inkscape:connector-curvature="0" /><path
                 d="m 5364,5280 c 0,28.7188 -23.2812,52 -52,52 -28.7188,0 -52,-23.2812 -52,-52 0,-28.7188 23.2812,-52 52,-52 28.7188,0 52,23.2812 52,52 z"
                 style="fill:none;stroke:#ff9999;stroke-width:12.5;stroke-linecap:round;stroke-linejoin:round;stroke-miterlimit:10;stroke-dasharray:none;stroke-opacity:1"
                 id="path110"
                 inkscape:connector-curvature="0" /><path
                 d="m 5364,5280 c 0,28.7188 -23.2812,52 -52,52 -28.7188,0 -52,-23.2812 -52,-52 0,-28.7188 23.2812,-52 52,-52 28.7188,0 52,23.2812 52,52 z"
                 style="fill:#ffffff;fill-opacity:1;fill-rule:evenodd;stroke:#000000;stroke-width:1;stroke-linecap:square;stroke-linejoin:bevel;stroke-miterlimit:10;stroke-dasharray:none;stroke-opacity:1"
                 id="path112"
                 inkscape:connector-curvature="0" /><path
                 d="m 4363,5960 c 0,28.7188 -23.2812,52 -52,52 -28.7188,0 -52,-23.2812 -52,-52 0,-28.7188 23.2812,-52 52,-52 28.7188,0 52,23.2812 52,52 z"
                 style="fill:none;stroke:#ff9999;stroke-width:12.5;stroke-linecap:round;stroke-linejoin:round;stroke-miterlimit:10;stroke-dasharray:none;stroke-opacity:1"
                 id="path114"
                 inkscape:connector-curvature="0" /><path
                 d="m 4363,5960 c 0,28.7188 -23.2812,52 -52,52 -28.7188,0 -52,-23.2812 -52,-52 0,-28.7188 23.2812,-52 52,-52 28.7188,0 52,23.2812 52,52 z"
                 style="fill:#ffffff;fill-opacity:1;fill-rule:evenodd;stroke:#000000;stroke-width:1;stroke-linecap:square;stroke-linejoin:bevel;stroke-miterlimit:10;stroke-dasharray:none;stroke-opacity:1"
                 id="path116"
                 inkscape:connector-curvature="0" /></g></g></g></g></g></g></svg>