<?xml version="1.0" encoding="UTF-8" standalone="no"?>
<!-- Created with Inkscape (http://www.inkscape.org/) -->

<svg
   xmlns:dc="http://purl.org/dc/elements/1.1/"
   xmlns:cc="http://creativecommons.org/ns#"
   xmlns:rdf="http://www.w3.org/1999/02/22-rdf-syntax-ns#"
   xmlns:svg="http://www.w3.org/2000/svg"
   xmlns="http://www.w3.org/2000/svg"
   xmlns:sodipodi="http://sodipodi.sourceforge.net/DTD/sodipodi-0.dtd"
   xmlns:inkscape="http://www.inkscape.org/namespaces/inkscape"
   width="210mm"
   height="297mm"
   viewBox="0 0 210 297"
   version="1.1"
   id="svg8"
   inkscape:version="0.92.2 (5c3e80d, 2017-08-06)"
   sodipodi:docname="Centromere Plus Bottom.svg">
  <defs
     id="defs2">
    <clipPath
       id="clipPath36"
       clipPathUnits="userSpaceOnUse">
      <path
         style="clip-rule:evenodd"
         inkscape:connector-curvature="0"
         id="path34"
         d="M 0,0 H 10200 V 13200 H 0 Z" />
    </clipPath>
    <clipPath
       id="clipPath46"
       clipPathUnits="userSpaceOnUse">
      <path
         style="clip-rule:evenodd"
         inkscape:connector-curvature="0"
         id="path44"
         d="M 0,0 H 10200 V 13200 H 0 Z" />
    </clipPath>
    <clipPath
       id="clipPath52"
       clipPathUnits="userSpaceOnUse">
      <path
         style="clip-rule:evenodd"
         inkscape:connector-curvature="0"
         id="path50"
         d="M 1681,3879 H 8518 V 9321 H 1681 Z" />
    </clipPath>
  </defs>
  <sodipodi:namedview
     id="base"
     pagecolor="#ffffff"
     bordercolor="#666666"
     borderopacity="1.0"
     inkscape:pageopacity="0.0"
     inkscape:pageshadow="2"
     inkscape:zoom="0.98994949"
     inkscape:cx="944.70526"
     inkscape:cy="364.95646"
     inkscape:document-units="mm"
     inkscape:current-layer="g40"
     showgrid="false"
     inkscape:window-width="3840"
     inkscape:window-height="2066"
     inkscape:window-x="2869"
     inkscape:window-y="-11"
     inkscape:window-maximized="1" />
  <metadata
     id="metadata5">
    <rdf:RDF>
      <cc:Work
         rdf:about="">
        <dc:format>image/svg+xml</dc:format>
        <dc:type
           rdf:resource="http://purl.org/dc/dcmitype/StillImage" />
        <dc:title></dc:title>
      </cc:Work>
    </rdf:RDF>
  </metadata>
  <g
     inkscape:label="Layer 1"
     inkscape:groupmode="layer"
     id="layer1">
    <g
       transform="matrix(0.35277777,0,0,-0.35277777,-8.3426841,286.64345)"
       inkscape:label="Centromere Plus Bottom"
       id="g18">
      <g
         id="g22"
         transform="matrix(0.06,0,0,-0.06,0,792)">
        <g
           id="g24" />
      </g>
      <g
         id="g26"
         transform="matrix(0.06,0,0,-0.06,0,792)">
        <g
           id="g28" />
      </g>
      <g
         id="g30"
         transform="matrix(0.06,0,0,-0.06,0,792)">
        <g
           id="g32"
           clip-path="url(#clipPath36)">
          <g
             id="g38" />
        </g>
      </g>
      <g
         id="g40"
         transform="matrix(0.06,0,0,-0.06,0,792)">
        <g
           id="g42"
           clip-path="url(#clipPath46)"
           transform="translate(524.01664,119.95562)">
          <g
             id="g48"
             clip-path="url(#clipPath52)">
            <g
               id="g54" />
            <g
               id="g56">
              <path
                 d="M 7255,6852 V 3974"
                 style="fill:none;stroke:#000000;stroke-width:12.5;stroke-linecap:round;stroke-linejoin:round;stroke-miterlimit:10;stroke-dasharray:none;stroke-opacity:1"
                 id="path58"
                 inkscape:connector-curvature="0" />
              <path
                 d="m 7255,3974 -2,-19 -5,-17 -9,-17 -12,-14 -14,-12 -16,-8 -18,-6 -19,-2"
                 style="fill:none;stroke:#000000;stroke-width:12.5;stroke-linecap:round;stroke-linejoin:round;stroke-miterlimit:10;stroke-dasharray:none;stroke-opacity:1"
                 id="path60"
                 inkscape:connector-curvature="0" />
              <path
                 d="M 7160,3879 H 1776"
                 style="fill:none;stroke:#000000;stroke-width:12.5;stroke-linecap:round;stroke-linejoin:round;stroke-miterlimit:10;stroke-dasharray:none;stroke-opacity:1"
                 id="path62"
                 inkscape:connector-curvature="0" />
              <path
                 d="m 1776,3879 -18,2 -18,6 -16,8 -14,12 -12,14 -9,17 -5,17 -2,19"
                 style="fill:none;stroke:#000000;stroke-width:12.5;stroke-linecap:round;stroke-linejoin:round;stroke-miterlimit:10;stroke-dasharray:none;stroke-opacity:1"
                 id="path64"
                 inkscape:connector-curvature="0" />
              <path
                 d="M 1682,3974 V 8697"
                 style="fill:none;stroke:#000000;stroke-width:12.5;stroke-linecap:round;stroke-linejoin:round;stroke-miterlimit:10;stroke-dasharray:none;stroke-opacity:1"
                 id="path66"
                 inkscape:connector-curvature="0" />
              <path
                 d="m 1682,8697 2,18 5,18 9,16 12,14 14,12 16,9 18,5 18,2"
                 style="fill:none;stroke:#000000;stroke-width:12.5;stroke-linecap:round;stroke-linejoin:round;stroke-miterlimit:10;stroke-dasharray:none;stroke-opacity:1"
                 id="path68"
                 inkscape:connector-curvature="0" />
              <path
                 d="M 1776,8791 H 6248"
                 style="fill:none;stroke:#000000;stroke-width:12.5;stroke-linecap:round;stroke-linejoin:round;stroke-miterlimit:10;stroke-dasharray:none;stroke-opacity:1"
                 id="path70"
                 inkscape:connector-curvature="0" />
              <path
                 d="m 6278,8796 -15,-4 -15,-1"
                 style="fill:none;stroke:#000000;stroke-width:12.5;stroke-linecap:round;stroke-linejoin:round;stroke-miterlimit:10;stroke-dasharray:none;stroke-opacity:1"
                 id="path72"
                 inkscape:connector-curvature="0" />
              <path
                 d="m 6278,8796 693,234"
                 style="fill:none;stroke:#000000;stroke-width:12.5;stroke-linecap:round;stroke-linejoin:round;stroke-miterlimit:10;stroke-dasharray:none;stroke-opacity:1"
                 id="path74"
                 inkscape:connector-curvature="0" />
              <path
                 d="m 6971,9030 790,284"
                 style="fill:none;stroke:#000000;stroke-width:12.5;stroke-linecap:round;stroke-linejoin:round;stroke-miterlimit:10;stroke-dasharray:none;stroke-opacity:1"
                 id="path76"
                 inkscape:connector-curvature="0" />
              <path
                 d="m 7761,9314 18,4 19,1 18,-2 18,-7 15,-9 14,-13 11,-15 8,-17"
                 style="fill:none;stroke:#000000;stroke-width:12.5;stroke-linecap:round;stroke-linejoin:round;stroke-miterlimit:10;stroke-dasharray:none;stroke-opacity:1"
                 id="path78"
                 inkscape:connector-curvature="0" />
              <path
                 d="M 7882,9256 8512,7472"
                 style="fill:none;stroke:#000000;stroke-width:12.5;stroke-linecap:round;stroke-linejoin:round;stroke-miterlimit:10;stroke-dasharray:none;stroke-opacity:1"
                 id="path80"
                 inkscape:connector-curvature="0" />
              <path
                 d="m 8512,7472 4,-18 1,-18 -3,-18 -6,-18 -10,-16 -12,-13 -15,-11 -16,-8"
                 style="fill:none;stroke:#000000;stroke-width:12.5;stroke-linecap:round;stroke-linejoin:round;stroke-miterlimit:10;stroke-dasharray:none;stroke-opacity:1"
                 id="path82"
                 inkscape:connector-curvature="0" />
              <path
                 d="M 8455,7352 7317,6941"
                 style="fill:none;stroke:#000000;stroke-width:12.5;stroke-linecap:round;stroke-linejoin:round;stroke-miterlimit:10;stroke-dasharray:none;stroke-opacity:1"
                 id="path84"
                 inkscape:connector-curvature="0" />
              <path
                 d="m 7255,6852 1,17 5,15 7,15 9,14 12,12 13,9 15,7"
                 style="fill:none;stroke:#000000;stroke-width:12.5;stroke-linecap:round;stroke-linejoin:round;stroke-miterlimit:10;stroke-dasharray:none;stroke-opacity:1"
                 id="path86"
                 inkscape:connector-curvature="0" />
              <path
                 d="m 6929,7846 c 0,28.7188 -23.2812,52 -52,52 -28.7188,0 -52,-23.2812 -52,-52 0,-28.7188 23.2812,-52 52,-52 28.7188,0 52,23.2812 52,52 z"
                 style="fill:none;stroke:#000000;stroke-width:12.5;stroke-linecap:round;stroke-linejoin:round;stroke-miterlimit:10;stroke-dasharray:none;stroke-opacity:1"
                 id="path88"
                 inkscape:connector-curvature="0" />
              <path
                 d="m 6929,7846 c 0,28.7188 -23.2812,52 -52,52 -28.7188,0 -52,-23.2812 -52,-52 0,-28.7188 23.2812,-52 52,-52 28.7188,0 52,23.2812 52,52 z"
                 style="fill:#ffffff;fill-opacity:1;fill-rule:evenodd;stroke:#000000;stroke-width:1;stroke-linecap:square;stroke-linejoin:bevel;stroke-miterlimit:10;stroke-dasharray:none;stroke-opacity:1"
                 id="path90"
                 inkscape:connector-curvature="0" />
              <path
                 d="m 2254,8153 c 0,28.7188 -23.2812,52 -52,52 -28.7188,0 -52,-23.2812 -52,-52 0,-28.7188 23.2812,-52 52,-52 28.7188,0 52,23.2812 52,52 z"
                 style="fill:none;stroke:#000000;stroke-width:12.5;stroke-linecap:round;stroke-linejoin:round;stroke-miterlimit:10;stroke-dasharray:none;stroke-opacity:1"
                 id="path92"
                 inkscape:connector-curvature="0" />
              <path
                 d="m 2254,8153 c 0,28.7188 -23.2812,52 -52,52 -28.7188,0 -52,-23.2812 -52,-52 0,-28.7188 23.2812,-52 52,-52 28.7188,0 52,23.2812 52,52 z"
                 style="fill:#ffffff;fill-opacity:1;fill-rule:evenodd;stroke:#000000;stroke-width:1;stroke-linecap:square;stroke-linejoin:bevel;stroke-miterlimit:10;stroke-dasharray:none;stroke-opacity:1"
                 id="path94"
                 inkscape:connector-curvature="0" />
              <path
                 d="m 2254,4068 c 0,28.7188 -23.2812,52 -52,52 -28.7188,0 -52,-23.2812 -52,-52 0,-28.7188 23.2812,-52 52,-52 28.7188,0 52,23.2812 52,52 z"
                 style="fill:none;stroke:#000000;stroke-width:12.5;stroke-linecap:round;stroke-linejoin:round;stroke-miterlimit:10;stroke-dasharray:none;stroke-opacity:1"
                 id="path96"
                 inkscape:connector-curvature="0" />
              <path
                 d="m 2254,4068 c 0,28.7188 -23.2812,52 -52,52 -28.7188,0 -52,-23.2812 -52,-52 0,-28.7188 23.2812,-52 52,-52 28.7188,0 52,23.2812 52,52 z"
                 style="fill:#ffffff;fill-opacity:1;fill-rule:evenodd;stroke:#000000;stroke-width:1;stroke-linecap:square;stroke-linejoin:bevel;stroke-miterlimit:10;stroke-dasharray:none;stroke-opacity:1"
                 id="path98"
                 inkscape:connector-curvature="0" />
              <path
                 d="m 6929,4068 c 0,28.7188 -23.2812,52 -52,52 -28.7188,0 -52,-23.2812 -52,-52 0,-28.7188 23.2812,-52 52,-52 28.7188,0 52,23.2812 52,52 z"
                 style="fill:none;stroke:#000000;stroke-width:12.5;stroke-linecap:round;stroke-linejoin:round;stroke-miterlimit:10;stroke-dasharray:none;stroke-opacity:1"
                 id="path100"
                 inkscape:connector-curvature="0" />
              <path
                 d="m 6929,4068 c 0,28.7188 -23.2812,52 -52,52 -28.7188,0 -52,-23.2812 -52,-52 0,-28.7188 23.2812,-52 52,-52 28.7188,0 52,23.2812 52,52 z"
                 style="fill:#ffffff;fill-opacity:1;fill-rule:evenodd;stroke:#000000;stroke-width:1;stroke-linecap:square;stroke-linejoin:bevel;stroke-miterlimit:10;stroke-dasharray:none;stroke-opacity:1"
                 id="path102"
                 inkscape:connector-curvature="0" />
              <path
                 d="m 4520,5721 c 0,28.7188 -23.2812,52 -52,52 -28.7188,0 -52,-23.2812 -52,-52 0,-28.7188 23.2812,-52 52,-52 28.7188,0 52,23.2812 52,52 z"
                 style="fill:none;stroke:#000000;stroke-width:12.5;stroke-linecap:round;stroke-linejoin:round;stroke-miterlimit:10;stroke-dasharray:none;stroke-opacity:1"
                 id="path104"
                 inkscape:connector-curvature="0" />
              <path
                 d="m 4520,5721 c 0,28.7188 -23.2812,52 -52,52 -28.7188,0 -52,-23.2812 -52,-52 0,-28.7188 23.2812,-52 52,-52 28.7188,0 52,23.2812 52,52 z"
                 style="fill:#ffffff;fill-opacity:1;fill-rule:evenodd;stroke:#000000;stroke-width:1;stroke-linecap:square;stroke-linejoin:bevel;stroke-miterlimit:10;stroke-dasharray:none;stroke-opacity:1"
                 id="path106"
                 inkscape:connector-curvature="0" />
            </g>
          </g>
        </g>
      </g>
    </g>
  </g>
</svg>
